<svg version="1" xmlns="http://www.w3.org/2000/svg" width="322.667" height="322.667" viewBox="0 0 242.000000 242.000000"><path d="M0 121v121h242V0H0v121zm143.5-92c3.2 1.2 13.6 10.9 17.6 16.4 2.9 3.9 2.9 4 2.9 18.3V78h-2.7c-2.5 0-9.1 1.5-15 3.4-2.2.7-2.3.5-2.3-6.3V68h-8.4c-11.1 0-11.6-.5-11.6-11.6V48H64v50h59.8l-3.8 7.3c-4.3 8.5-6.6 19.3-5.6 27.4l.6 5.3H64v30h69.6l7.6 3.9c5 2.6 10.2 4.4 15.2 5.2 4.9.8 7.6 1.8 7.6 2.6 0 .7-1.3 2.7-2.9 4.5l-2.9 3.3-53.6.3-53.5.3-3.3-3-3.3-2.9-.3-17.1-.3-17.1h-8.4c-12.3 0-11.7 1.2-11.3-24.9.3-20.4.4-21.8 2.5-25.2 2.8-4.5 8.6-8.5 13.5-9.4l3.7-.7.3-27 .3-27 3.3-2.9L51 28h45c27.6 0 45.9.4 47.5 1zm28.7 60.1c7.7 1.7 14.4 5.4 20 11.1 11.7 12 14.6 27.6 8.2 44.1l-1.9 4.8 12.8 12.6c7.7 7.7 12.7 13.4 12.7 14.6 0 2.6-9.1 11.7-11.7 11.7-1.2 0-6.9-5-14.6-12.7l-12.6-12.8-4.8 1.9c-8.5 3.3-14.8 4.1-22.4 2.8-8.8-1.5-15.4-4.8-21.7-11-15.9-15.5-15.9-40.9 0-56.4 10.1-9.8 22.6-13.5 36-10.7z"/><path d="M157.2 109.1c-4.6 1.4-10.9 8.3-12.3 13.3-2.3 8.6 1.4 18.1 9 22.9 2.8 1.7 5.1 2.2 10.2 2.2 5.6 0 7.2-.4 10.7-2.9 6.4-4.4 8.7-8.8 8.7-16.6 0-7.7-2.3-12.2-8.4-16.4-4.4-3.1-12.4-4.2-17.9-2.5z"/></svg>